# xmcd
#
# Track frame offsets: 
#        150
#        31401
#        51634
#        82159
#        111779
#        149790
#        166585
#        193260
#        226700
#
# Disc length: 3385 seconds
#
# Revision: 1
# Processed by: cddbd v1.5.2PL0 Copyright (c) Steve Scherf et al.
# Submitted via: ExactAudioCopyFreeDBPlugin 1.0
#
DISCID=7e0d3709
DTITLE=Death - The Sound Of Perseverance [CD1) [2CD deluxe edition, re
DTITLE=mastered 2011, Relapse Records RR7154]
DYEAR=1998
DGENRE=Death Metal
TTITLE0=Scavenger Of Human Sorrow
TTITLE1=Bite The Pain
TTITLE2=Spirit Crusher
TTITLE3=Story To Tell
TTITLE4=Flesh And The Power It Holds
TTITLE5=Voice Of The Soul
TTITLE6=To Forgive Is To Suffer
TTITLE7=A Moment Of Clarity
TTITLE8=Painkiller
EXTD=
EXTT0=
EXTT1=
EXTT2=
EXTT3=
EXTT4=
EXTT5=
EXTT6=
EXTT7=
EXTT8=
PLAYORDER=
